<svg width="4" height="4" viewBox="0 0 4 4" fill="none" xmlns="http://www.w3.org/2000/svg">
<path d="M1.26336 3.77807C0.842079 3.77807 0.462275 3.5243 0.30103 3.1351C0.139785 2.74589 0.228848 2.29788 0.526696 1.99994L0.968779 1.55786L1.26336 1.85244L0.821488 2.29432C0.663584 2.45222 0.601915 2.68237 0.659712 2.89807C0.717509 3.11377 0.88599 3.28226 1.10169 3.34005C1.31739 3.39785 1.54754 3.33618 1.70545 3.17828L2.14732 2.7364L2.4419 3.03119L2.00003 3.47307C1.80504 3.66901 1.53979 3.77884 1.26336 3.77807ZM1.41065 2.88369L1.11607 2.58911L2.5892 1.11598L2.88378 1.41057L1.41086 2.88349L1.41065 2.88369ZM3.03128 2.44182L2.73649 2.14724L3.17836 1.70536C3.33842 1.54793 3.40174 1.31675 3.34425 1.09973C3.28676 0.882714 3.11729 0.713203 2.90028 0.655661C2.68328 0.598118 2.45208 0.661385 2.29461 0.821402L1.85253 1.26328L1.55795 0.968693L2.00003 0.52661C2.40734 0.122853 3.0644 0.124292 3.46994 0.529829C3.87547 0.935366 3.87691 1.59243 3.47315 1.99974L3.03128 2.44161V2.44182Z" fill="#516CF7"/>
</svg>
