<svg width="24" height="38" viewBox="0 0 24 38" fill="none" xmlns="http://www.w3.org/2000/svg">
<path d="M0.000224211 34.7815L0.000224211 5.94023C0.000224211 4.36466 0.626117 2.85362 1.74021 1.73953C2.85431 0.625431 4.36535 -0.000464475 5.94092 -0.000464475L5.94092 28.8408C5.94092 30.4164 5.31503 31.9274 4.20093 33.0415C3.08683 34.1556 1.57579 34.7815 0.000224211 34.7815Z" fill="white"/>
<path d="M6.15625 23.8633C7.27035 22.7492 8.78138 22.1234 10.357 22.1234C11.9325 22.1234 13.4436 22.7492 14.5577 23.8633L23.7361 33.0418C23.1844 33.5936 22.5293 34.0313 21.8084 34.3298C21.0875 34.6284 20.3148 34.782 19.5345 34.7818C18.7541 34.7817 17.9815 34.6278 17.2607 34.329C16.5398 34.0303 15.8849 33.5924 15.3333 33.0404L6.15625 23.8633Z" fill="white"/>
<path d="M15.6665 18.6681C17.7254 18.6681 19.3944 16.999 19.3944 14.9401C19.3944 12.8812 17.7254 11.2121 15.6665 11.2121C13.6075 11.2121 11.9385 12.8812 11.9385 14.9401C11.9385 16.999 13.6075 18.6681 15.6665 18.6681Z" fill="white"/>
</svg>
